<svg xmlns="http://www.w3.org/2000/svg" width="24" height="24" viewBox="0 0 24 24"><defs><style>.a{fill:#fff;}.b{fill:#03a87c;}</style></defs><path class="a" d="M12,0H12A11.993,11.993,0,0,0,2.284,19.034l-1.5,4.458L5.4,22.017A12,12,0,1,0,12,0Z" transform="translate(0)"/><path class="b" d="M43.488,43.668A3.435,3.435,0,0,1,41.1,45.39c-.636.136-1.467.244-4.263-.918-3.577-1.486-5.881-5.13-6.06-5.366a6.979,6.979,0,0,1-1.445-3.681,3.9,3.9,0,0,1,1.245-2.97,1.766,1.766,0,0,1,1.245-.438c.151,0,.286.008.408.014.358.015.537.037.773.6.294.709,1.009,2.461,1.094,2.641a.728.728,0,0,1,.052.661,2.109,2.109,0,0,1-.394.56c-.18.207-.35.366-.529.589-.164.194-.35.4-.143.76A10.828,10.828,0,0,0,35.054,40.3a8.944,8.944,0,0,0,2.854,1.765.768.768,0,0,0,.858-.136,14.761,14.761,0,0,0,.951-1.263.678.678,0,0,1,.873-.265c.329.114,2.068.976,2.425,1.155s.593.265.68.416A3.047,3.047,0,0,1,43.488,43.668Z" transform="translate(-24.407 -26.642)"/></svg>